<svg width="62" height="49" viewBox="0 0 62 49" fill="none" xmlns="http://www.w3.org/2000/svg">
<path d="M20.1971 22.896C22.5971 23.952 24.4691 25.536 25.8131 27.648C27.1571 29.76 27.8291 32.256 27.8291 35.136C27.8291 39.264 26.5331 42.624 23.9411 45.216C21.3491 47.712 18.0371 48.96 14.0051 48.96C9.97313 48.96 6.61311 47.664 3.92511 45.072C1.33311 42.48 0.0371094 39.168 0.0371094 35.136C0.0371094 33.216 0.277111 31.296 0.757111 29.376C1.23711 27.456 2.29311 24.576 3.92511 20.736L12.2771 0H26.5331L20.1971 22.896ZM54.1811 22.896C56.5811 23.952 58.4531 25.536 59.7971 27.648C61.1411 29.76 61.8131 32.256 61.8131 35.136C61.8131 39.264 60.5171 42.624 57.9251 45.216C55.3331 47.712 52.0211 48.96 47.9891 48.96C43.9571 48.96 40.5971 47.664 37.9091 45.072C35.3171 42.48 34.0211 39.168 34.0211 35.136C34.0211 33.216 34.2611 31.296 34.7411 29.376C35.2211 27.456 36.2771 24.576 37.9091 20.736L46.2611 0H60.5171L54.1811 22.896Z" fill="#EF7225"/>
</svg>
