<?xml version="1.0" standalone="no"?>
<!DOCTYPE svg PUBLIC "-//W3C//DTD SVG 20010904//EN"
 "http://www.w3.org/TR/2001/REC-SVG-20010904/DTD/svg10.dtd">
<svg version="1.0" xmlns="http://www.w3.org/2000/svg"
 width="512.000000pt" height="512.000000pt" viewBox="0 0 512.000000 512.000000"
 preserveAspectRatio="xMidYMid meet">

<g transform="translate(0.000000,512.000000) scale(0.100000,-0.100000)"
fill="url(#gradient)" stroke="none">
  <defs>
    <linearGradient id="gradient" x1="0%" y1="0%" x2="100%" y2="0%">
      <stop offset="0%" style="stop-color:rgb(255,0,0);stop-opacity:1" />
      <stop offset="100%" style="stop-color:rgb(255,255,0);stop-opacity:1" />
    </linearGradient>
  </defs>
<path d="M2415 5113 c-341 -42 -619 -162 -863 -373 -247 -214 -419 -507 -494
-841 -20 -91 -23 -131 -23 -314 0 -183 3 -223 23 -314 130 -580 562 -1029
1127 -1172 688 -173 1410 152 1734 780 69 136 111 249 143 392 20 92 23 130
23 319 -1 197 -3 224 -27 325 -153 641 -658 1105 -1296 1190 -98 13 -273 17
-347 8z m404 -158 c384 -75 719 -305 929 -640 198 -316 256 -739 152 -1111
-31 -111 -32 -112 -65 -64 -24 35 -120 109 -157 123 -10 3 -9 9 3 23 66 76 88
223 50 325 -38 101 -130 184 -232 209 -36 9 -49 18 -64 47 -24 43 -101 114
-154 140 l-40 20 24 33 c47 64 70 166 56 246 -21 114 -83 198 -183 251 -48 25
-63 28 -153 28 -85 0 -106 -3 -143 -23 -63 -34 -124 -93 -158 -154 -27 -49
-29 -61 -29 -153 0 -86 3 -106 24 -145 13 -25 30 -53 39 -63 18 -20 19 -18
-36 -46 -24 -12 -60 -38 -82 -57 l-39 -35 -53 43 c-30 24 -68 50 -86 57 -33
14 -40 25 -22 36 6 4 22 30 37 58 20 40 27 71 31 132 6 110 -21 179 -97 256
-77 76 -146 103 -256 97 -81 -5 -132 -23 -197 -71 -45 -34 -96 -117 -114 -187
-24 -96 -2 -202 58 -279 l18 -24 -40 -18 c-49 -22 -130 -97 -155 -143 -15 -27
-28 -37 -64 -46 -102 -25 -194 -108 -232 -209 -29 -79 -24 -194 14 -268 15
-28 31 -54 37 -58 18 -11 11 -22 -28 -39 -42 -19 -106 -74 -139 -121 l-21 -29
-21 67 c-47 153 -56 223 -56 432 1 182 3 209 27 305 31 125 62 208 113 309
209 416 604 695 1075 761 92 13 330 4 429 -15z m-606 -519 c39 -17 92 -71 106
-109 18 -48 13 -120 -12 -168 -63 -118 -216 -140 -312 -45 -103 103 -68 271
66 325 36 14 115 13 152 -3z m865 -7 c118 -58 143 -219 47 -314 -71 -72 -167
-80 -254 -22 -68 45 -100 154 -70 234 14 37 66 92 104 109 46 20 122 17 173
-7z m-708 -550 c25 -15 53 -36 62 -46 17 -19 16 -20 -24 -38 -94 -41 -175
-161 -185 -274 -6 -68 16 -157 53 -214 14 -22 24 -40 22 -41 -2 -1 -23 -14
-48 -28 -25 -15 -60 -42 -79 -62 l-34 -35 -49 44 c-27 24 -66 52 -87 61 l-38
17 33 54 c62 103 67 219 14 329 -27 55 -98 126 -150 149 l-40 18 22 25 c13 14
46 35 73 49 48 23 58 24 230 21 174 -3 181 -4 225 -29z m835 7 c28 -13 60 -34
73 -48 l22 -25 -40 -18 c-52 -23 -123 -94 -150 -149 -53 -110 -48 -226 14
-329 l33 -54 -38 -17 c-21 -9 -60 -37 -87 -61 l-49 -44 -34 35 c-19 20 -54 47
-79 62 -25 14 -47 27 -49 28 -2 2 6 16 17 32 40 56 57 114 57 197 0 71 -4 89
-33 147 -34 69 -87 124 -148 153 -19 9 -34 20 -34 25 0 14 66 61 107 76 26 9
91 13 203 13 153 1 169 -1 215 -23z m-1386 -229 c55 -36 85 -96 85 -167 -1
-65 -20 -105 -68 -148 -123 -108 -312 -28 -324 137 -6 85 32 151 113 195 47
25 142 17 194 -17z m819 18 c137 -58 163 -232 49 -332 -33 -29 -90 -53 -127
-53 -68 0 -151 57 -181 125 -73 161 94 328 259 260z m860 -4 c78 -40 116 -107
110 -192 -13 -173 -212 -248 -334 -125 -103 103 -68 271 67 325 41 16 117 12
157 -8z m-1562 -548 c45 -24 100 -82 115 -120 13 -35 12 -713 -2 -713 -13 0
-175 81 -231 116 -85 53 -207 155 -278 231 -98 106 -190 245 -190 286 0 60 21
108 64 152 67 66 102 75 306 72 158 -2 179 -4 216 -24z m815 15 c58 -20 109
-60 137 -107 l27 -46 0 -375 0 -375 -90 -18 c-126 -27 -404 -27 -530 0 l-90
18 0 375 0 375 27 47 c27 46 73 82 133 105 41 16 341 17 386 1z m864 -5 c61
-20 130 -87 144 -139 21 -74 15 -97 -48 -191 -102 -151 -257 -302 -409 -397
-57 -35 -218 -116 -232 -116 -8 0 -10 102 -8 359 l3 359 31 38 c72 89 114 103
315 104 119 0 167 -4 204 -17z"/>
<path d="M473 3759 c-112 -14 -189 -77 -221 -179 -15 -50 -17 -105 -14 -560 2
-278 7 -707 11 -955 7 -430 9 -453 30 -515 51 -146 94 -194 342 -381 232 -175
244 -190 271 -339 23 -125 24 -118 -19 -125 -101 -16 -131 -27 -161 -58 -52
-55 -53 -80 -16 -318 18 -117 39 -226 45 -242 15 -37 68 -77 111 -83 18 -3
161 15 318 40 157 25 488 77 735 116 248 39 468 76 490 82 49 12 102 67 111
113 4 21 -8 119 -30 256 -41 251 -51 274 -130 304 -36 14 -55 15 -100 8 l-56
-10 -4 31 c-3 17 -12 146 -21 287 -20 336 -42 418 -141 528 -50 56 -812 622
-888 661 -39 19 -69 25 -143 28 -60 3 -93 8 -93 16 1 68 -114 1101 -126 1134
-42 115 -161 179 -301 161z m152 -181 c14 -16 25 -35 25 -42 0 -6 27 -268 60
-581 l59 -570 -39 -40 c-121 -125 -125 -293 -11 -444 14 -19 130 -112 258
-207 301 -225 304 -227 337 -218 35 8 60 46 52 78 -8 31 -25 45 -303 251 -228
168 -266 206 -283 279 -16 70 11 132 84 190 32 26 47 31 106 34 60 4 75 1 114
-21 63 -35 761 -550 814 -601 50 -47 87 -113 102 -182 10 -43 52 -606 46 -612
-4 -3 -990 -159 -994 -157 -1 1 -11 51 -21 111 -35 201 -58 233 -310 423 -108
82 -211 165 -229 185 -50 57 -81 128 -92 208 -11 88 -33 1752 -24 1823 12 90
39 122 114 135 52 9 107 -8 135 -42z m1713 -2992 c18 -110 29 -202 25 -206
-11 -11 -1484 -242 -1492 -235 -13 14 -67 396 -57 403 12 8 1453 240 1476 238
12 -1 23 -47 48 -200z"/>
<path d="M2092 597 c-12 -13 -22 -33 -22 -46 0 -27 42 -71 68 -71 33 0 72 38
72 71 0 62 -75 92 -118 46z"/>
<path d="M4547 3759 c-91 -14 -170 -77 -201 -161 -12 -33 -126 -1062 -126
-1134 0 -8 -33 -13 -93 -16 -74 -3 -104 -9 -143 -28 -76 -38 -838 -605 -888
-661 -99 -110 -121 -192 -141 -528 -9 -141 -18 -270 -21 -287 l-4 -31 -56 10
c-45 7 -64 6 -100 -8 -80 -31 -91 -55 -130 -302 -20 -120 -33 -233 -30 -251 6
-41 40 -88 77 -107 38 -20 1534 -258 1577 -251 41 6 88 40 107 75 8 16 28 115
44 222 17 107 33 204 35 217 6 41 -15 99 -48 131 -27 26 -49 35 -115 48 -44 9
-81 21 -81 27 1 6 9 54 18 106 27 149 40 164 266 334 248 186 297 241 346 385
27 81 28 105 41 1091 11 862 10 900 -36 990 -49 98 -166 148 -298 129z m140
-158 c30 -15 49 -54 57 -116 9 -71 -13 -1735 -24 -1823 -11 -80 -42 -151 -92
-208 -17 -20 -120 -103 -228 -184 -254 -193 -275 -222 -310 -424 -11 -60 -21
-110 -22 -111 -3 -2 -991 154 -994 158 -6 6 36 569 46 611 15 69 52 135 102
182 53 51 751 566 814 601 39 22 54 25 114 21 59 -3 74 -8 106 -34 73 -59 97
-112 83 -188 -13 -73 -55 -113 -309 -302 -134 -100 -253 -193 -264 -208 -26
-34 -13 -75 29 -95 25 -12 33 -12 58 2 65 38 475 346 520 391 141 143 148 335
17 471 l-39 40 59 570 c33 314 60 576 60 582 0 24 55 75 90 82 39 8 94 1 127
-18z m-1107 -2932 c393 -62 720 -116 726 -120 7 -6 1 -69 -20 -203 -17 -107
-34 -197 -37 -201 -4 -3 -161 19 -350 49 -189 30 -522 83 -739 117 -217 34
-398 65 -403 69 -7 6 45 364 58 399 3 8 14 11 28 8 12 -3 344 -56 737 -118z"/>
<path d="M2930 600 c-29 -29 -26 -74 6 -99 35 -27 59 -26 89 4 31 30 32 65 2
93 -29 27 -71 28 -97 2z"/>
</g>
</svg>
