<?xml version="1.0" standalone="no"?>
<!DOCTYPE svg PUBLIC "-//W3C//DTD SVG 20010904//EN"
 "http://www.w3.org/TR/2001/REC-SVG-20010904/DTD/svg10.dtd">
<svg version="1.0" xmlns="http://www.w3.org/2000/svg"
 width="512.000000pt" height="512.000000pt" viewBox="0 0 512.000000 512.000000"
 preserveAspectRatio="xMidYMid meet">

<g transform="translate(0.000000,512.000000) scale(0.100000,-0.100000)"
fill="url(#gradient)" stroke="none">
  <defs>
    <linearGradient id="gradient" x1="0%" y1="0%" x2="100%" y2="0%">
      <stop offset="0%" style="stop-color:rgb(255,0,0);stop-opacity:1" />
      <stop offset="100%" style="stop-color:rgb(255,255,0);stop-opacity:1" />
    </linearGradient>
  </defs>
<path d="M1945 5105 c-32 -17 -75 -63 -75 -81 0 -6 -42 -26 -92 -44 -416 -144
-724 -504 -804 -941 -15 -81 -18 -88 -46 -100 -45 -18 -120 -97 -148 -154 -21
-42 -25 -65 -25 -140 0 -79 4 -97 27 -141 31 -58 74 -105 130 -140 l38 -24 0
-119 c0 -186 30 -311 118 -486 56 -113 144 -243 224 -329 33 -37 59 -69 56
-71 -2 -2 -44 -19 -94 -38 -456 -175 -793 -488 -1019 -951 -105 -214 -184
-457 -216 -666 -31 -201 35 -343 186 -399 84 -31 213 -40 575 -40 354 0 374 3
404 60 21 40 18 72 -13 110 l-19 24 -414 6 c-427 6 -468 10 -503 49 -45 50
-22 228 66 494 153 466 413 802 784 1015 49 28 92 51 96 51 3 0 9 -37 12 -83
15 -183 77 -340 203 -507 87 -115 105 -130 157 -130 43 0 32 -9 492 442 l130
128 260 -252 c326 -317 327 -318 369 -318 44 0 73 25 148 122 126 166 193 331
205 506 3 50 9 92 12 92 16 -1 165 -88 235 -138 99 -71 220 -182 209 -193 -12
-11 -111 -38 -183 -50 -122 -19 -136 -46 -126 -247 8 -165 35 -328 76 -452 38
-118 140 -328 214 -439 31 -47 56 -86 56 -88 0 -2 -381 -3 -846 -3 l-846 0
-29 -29 c-40 -40 -40 -89 0 -133 l29 -33 928 -3 928 -2 66 -64 c128 -124 252
-184 354 -172 161 18 362 199 571 511 205 305 304 626 305 985 0 104 -19 143
-77 159 -21 6 -47 11 -58 11 -77 0 -314 98 -436 180 -75 50 -199 153 -248 204
-39 40 -87 54 -122 35 -13 -7 -60 -45 -103 -86 -44 -40 -119 -100 -166 -133
l-87 -59 -69 70 c-179 182 -419 335 -656 420 l-87 32 65 76 c233 270 344 547
344 856 l0 80 45 29 c100 62 150 168 143 295 -7 116 -66 210 -163 262 -28 15
-45 31 -45 42 0 10 -7 53 -16 95 -59 292 -229 559 -470 740 -79 59 -254 151
-337 178 -32 10 -57 23 -57 30 0 21 -53 76 -87 90 -49 21 -437 20 -478 -1z
m378 -412 c9 -301 32 -464 103 -700 l6 -23 -241 0 c-151 0 -241 4 -241 10 0 5
11 47 24 93 50 172 85 487 86 765 l0 82 128 0 129 0 6 -227z m-467 -45 c-12
-258 -44 -446 -104 -618 l-19 -55 -281 -3 -282 -2 0 28 c0 48 40 173 85 268
77 160 203 307 349 406 54 38 230 127 250 128 5 0 6 -66 2 -152z m741 112
c219 -99 414 -295 514 -516 26 -58 79 -235 79 -265 0 -5 -118 -8 -272 -7
l-273 3 -32 95 c-40 120 -69 263 -82 410 -11 121 -15 310 -6 310 3 0 35 -14
72 -30z m746 -1003 c58 -38 76 -111 43 -175 -34 -66 41 -62 -1217 -62 l-1141
0 -39 39 c-33 32 -39 45 -39 80 0 71 30 110 99 132 14 4 530 7 1146 6 1052 -2
1123 -3 1148 -20z m-136 -559 c-7 -145 -29 -235 -92 -363 -186 -385 -606 -695
-941 -695 -203 0 -444 116 -652 314 -122 117 -210 235 -277 371 -73 146 -95
237 -95 382 l0 113 1031 0 1032 0 -6 -122z m-1597 -1068 c75 -50 179 -102 274
-136 l79 -28 -199 -192 c-109 -106 -202 -193 -207 -194 -17 -1 -103 150 -131
230 -27 75 -30 98 -31 202 0 64 3 119 6 123 11 11 134 43 144 37 6 -3 35 -22
65 -42z m1338 5 c4 -3 9 -47 10 -96 5 -109 -16 -209 -62 -305 -38 -77 -93
-157 -105 -152 -5 2 -97 89 -205 195 l-195 192 67 22 c77 25 234 103 307 152
l50 34 63 -17 c35 -10 66 -21 70 -25z m1517 -473 c111 -69 254 -133 364 -163
l84 -23 -7 -100 c-13 -197 -66 -385 -159 -571 -142 -285 -429 -605 -541 -605
-119 0 -416 339 -558 637 -89 188 -128 337 -144 544 l-6 95 82 23 c195 53 406
171 590 328 l34 30 86 -69 c47 -38 126 -95 175 -126z"/>
<path d="M4453 1280 c-11 -5 -83 -76 -159 -159 -76 -83 -141 -151 -145 -151
-3 0 -26 15 -50 33 -66 51 -87 60 -125 53 -44 -9 -74 -48 -74 -97 0 -47 21
-72 143 -163 98 -73 125 -80 176 -44 55 40 359 386 366 417 9 41 -18 89 -60
107 -39 16 -42 16 -72 4z"/>
<path d="M1479 411 c-39 -40 -40 -89 -1 -132 48 -54 130 -39 158 28 42 99 -80
180 -157 104z"/>
</g>
</svg>
