<?xml version="1.0" standalone="no"?>
<!DOCTYPE svg PUBLIC "-//W3C//DTD SVG 20010904//EN"
 "http://www.w3.org/TR/2001/REC-SVG-20010904/DTD/svg10.dtd">
<svg version="1.0" xmlns="http://www.w3.org/2000/svg"
 width="512.000000pt" height="512.000000pt" viewBox="0 0 512.000000 512.000000"
 preserveAspectRatio="xMidYMid meet">

<g transform="translate(0.000000,512.000000) scale(0.100000,-0.100000)"
fill="url(#gradient)" stroke="none">
  <defs>
    <linearGradient id="gradient" x1="0%" y1="0%" x2="100%" y2="0%">
      <stop offset="0%" style="stop-color:rgb(255,0,0);stop-opacity:1" />
      <stop offset="100%" style="stop-color:rgb(255,255,0);stop-opacity:1" />
    </linearGradient>
  </defs>
<path d="M4340 4335 l-245 -214 -90 89 c-128 126 -132 126 -291 -31 -134 -133
-153 -162 -135 -208 7 -15 113 -128 235 -250 208 -206 225 -221 259 -221 25 0
46 9 69 28 323 277 758 666 763 682 11 34 -5 61 -94 164 -145 168 -154 176
-192 176 -30 0 -63 -26 -279 -215z m323 -29 c26 -30 47 -59 47 -63 0 -10 -603
-541 -623 -549 -7 -2 -82 66 -167 151 l-155 155 58 57 57 58 87 -87 c82 -82
102 -94 145 -90 9 1 124 96 255 211 131 116 240 210 243 210 3 1 26 -24 53
-53z"/>
<path d="M669 4311 c-112 -21 -208 -92 -256 -190 -27 -53 -28 -64 -31 -227
l-4 -171 28 -22 c14 -11 32 -21 39 -21 9 0 14 -28 17 -94 3 -85 8 -102 41
-168 l37 -73 -11 -91 -12 -91 -131 -65 c-161 -81 -214 -125 -261 -221 -61
-124 -60 -150 29 -507 83 -334 95 -367 145 -423 l34 -38 34 -272 34 -272 -41
-446 c-44 -486 -44 -487 11 -510 38 -15 83 3 98 39 5 15 28 228 50 473 l41
446 -31 238 c-16 131 -28 239 -27 240 2 1 140 14 308 29 375 34 402 43 468
156 37 63 38 154 1 225 -28 56 -91 109 -147 125 -20 5 -139 10 -265 10 l-228
0 -24 -25 c-27 -26 -31 -51 -14 -88 19 -42 46 -47 278 -47 l218 0 27 -26 c56
-57 21 -137 -65 -148 -85 -12 -489 -46 -536 -46 -57 0 -114 33 -131 77 -23 57
-152 594 -152 631 0 56 44 137 93 171 23 16 102 58 174 95 74 36 139 76 147
88 8 13 18 55 22 95 l6 71 42 -16 c65 -24 207 -21 279 7 80 32 168 114 209
198 28 57 33 79 36 159 l4 94 99 0 c111 0 142 10 160 51 18 45 -2 77 -81 132
-50 34 -71 56 -75 75 -18 82 -32 119 -65 170 -62 97 -146 155 -267 188 -68 18
-287 27 -354 15z m292 -165 c84 -16 150 -55 187 -109 37 -54 43 -70 51 -139
l7 -58 -47 0 c-61 0 -95 -15 -109 -51 -15 -34 -6 -62 27 -93 24 -23 26 -29 20
-89 -11 -114 -54 -183 -142 -223 -123 -58 -267 -2 -324 126 -10 24 -16 73 -17
158 -2 113 -4 126 -25 148 -12 13 -31 24 -41 24 -16 0 -18 9 -18 66 0 96 17
151 60 194 20 20 51 41 70 47 48 15 221 15 301 -1z"/>
<path d="M2434 4311 c-114 -19 -212 -90 -261 -190 -27 -53 -28 -64 -31 -227
l-4 -171 28 -22 c14 -11 32 -21 39 -21 9 0 14 -28 17 -94 3 -85 8 -102 41
-168 34 -68 37 -79 37 -160 l0 -88 -131 -66 c-155 -77 -215 -128 -261 -221
-25 -51 -32 -81 -36 -141 -3 -70 3 -104 73 -382 49 -198 85 -321 102 -350 24
-42 28 -68 57 -388 l32 -343 -38 -372 c-46 -458 -46 -459 -12 -486 34 -27 67
-27 99 2 25 22 26 26 67 437 l42 415 -23 260 c-12 143 -25 274 -27 291 l-6 31
114 6 c62 4 144 10 182 13 l69 7 -7 -76 c-7 -73 -7 -77 18 -102 l25 -25 380 0
c261 0 388 4 405 11 13 7 29 23 35 38 8 21 51 375 51 419 0 9 23 12 84 12 l83
0 259 161 c142 89 273 172 290 185 41 32 84 112 91 171 20 171 -144 321 -311
283 -45 -10 -245 -116 -313 -167 -39 -28 -45 -76 -14 -114 32 -40 72 -31 221
54 82 47 146 77 163 77 20 0 40 -11 63 -34 44 -44 47 -92 7 -135 -16 -16 -134
-95 -263 -175 -225 -141 -236 -146 -288 -146 l-53 0 6 43 c16 117 35 307 35
349 0 38 -5 50 -26 67 -26 20 -37 21 -410 21 -471 0 -427 18 -449 -180 -8 -74
-17 -154 -20 -177 l-6 -43 -113 0 c-99 0 -117 -3 -140 -21 -37 -29 -37 -89 0
-118 25 -20 39 -21 246 -21 131 0 227 -4 239 -10 27 -15 51 -65 43 -94 -3 -13
-16 -34 -30 -47 -22 -20 -46 -24 -312 -48 -159 -15 -304 -23 -323 -20 -19 4
-47 22 -65 41 -27 30 -38 64 -103 323 -41 164 -73 311 -72 338 0 59 31 127 73
163 17 14 95 57 172 96 78 39 149 77 159 86 13 12 17 31 17 90 0 72 1 74 23
68 101 -31 181 -31 285 0 21 6 22 4 22 -68 0 -61 4 -78 19 -92 10 -9 77 -32
149 -51 141 -36 161 -45 237 -99 57 -41 82 -44 119 -15 41 33 36 82 -13 130
-54 51 -160 102 -269 129 l-92 22 0 82 c0 74 3 88 37 154 33 66 38 83 41 168
l4 94 107 0 c117 0 144 10 155 56 12 44 -10 76 -84 124 -60 39 -71 50 -76 80
-30 183 -152 311 -336 355 -75 18 -273 27 -344 16z m290 -166 c87 -18 148 -54
184 -108 37 -54 43 -70 51 -139 l7 -58 -58 0 c-49 0 -63 -4 -83 -25 -35 -34
-33 -79 5 -115 25 -23 30 -36 30 -72 0 -154 -107 -268 -251 -268 -57 0 -137
38 -173 81 -51 60 -60 94 -62 229 -2 121 -3 125 -29 147 -14 13 -33 23 -42 23
-13 0 -15 13 -11 88 7 130 47 194 138 220 53 15 216 14 294 -3z m681 -1532
c-5 -31 -36 -306 -60 -538 -8 -82 -18 -169 -21 -192 l-6 -43 -280 0 -279 0 3
27 c3 27 6 28 87 40 149 21 231 99 239 228 5 78 -8 120 -54 174 -44 51 -99 80
-166 88 l-50 6 6 41 c3 23 8 70 12 106 3 36 7 71 9 78 3 9 69 12 284 12 l281
0 -5 -27z"/>
<path d="M1050 3171 c-49 -16 -87 -40 -119 -76 -85 -97 -83 -175 13 -400 38
-89 79 -170 93 -182 48 -45 123 -13 123 53 0 17 -25 88 -56 160 -85 196 -86
200 -70 239 23 54 86 73 133 40 21 -15 233 -376 307 -522 20 -40 36 -86 36
-103 0 -49 -26 -99 -62 -118 -85 -45 -109 -101 -63 -147 31 -31 63 -31 124 -1
97 50 155 147 156 261 0 63 -5 80 -46 165 -70 145 -287 521 -323 558 -17 19
-49 43 -70 54 -43 22 -136 32 -176 19z"/>
<path d="M1413 2000 c-12 -5 -29 -20 -37 -33 -14 -21 -12 -89 24 -758 23 -404
45 -746 51 -761 23 -57 112 -59 137 -2 9 18 2 198 -28 740 -22 394 -40 727
-40 740 0 27 -36 70 -65 77 -11 3 -30 2 -42 -3z"/>
<path d="M3244 1588 c-46 -22 -46 -28 -4 -586 23 -290 46 -540 52 -555 22 -56
106 -60 133 -7 13 26 11 81 -25 557 -23 290 -45 540 -51 554 -10 25 -46 50
-72 48 -7 0 -22 -5 -33 -11z"/>
</g>
</svg>
