<?xml version="1.0" standalone="no"?>
<!DOCTYPE svg PUBLIC "-//W3C//DTD SVG 20010904//EN"
 "http://www.w3.org/TR/2001/REC-SVG-20010904/DTD/svg10.dtd">
<svg version="1.0" xmlns="http://www.w3.org/2000/svg"
 width="512.000000pt" height="512.000000pt" viewBox="0 0 512.000000 512.000000"
 preserveAspectRatio="xMidYMid meet">

<g transform="translate(0.000000,512.000000) scale(0.100000,-0.100000)"
fill="url(#gradient)" stroke="none">
  <defs>
    <linearGradient id="gradient" x1="0%" y1="0%" x2="100%" y2="0%">
      <stop offset="0%" style="stop-color:rgb(255,0,0);stop-opacity:1" />
      <stop offset="100%" style="stop-color:rgb(255,255,0);stop-opacity:1" />
    </linearGradient>
  </defs>
<path d="M1195 5045 c-452 -63 -849 -349 -1053 -760 -88 -179 -142 -410 -142
-612 0 -99 26 -277 55 -377 142 -491 547 -864 1055 -973 122 -26 432 -26 545
1 294 68 500 180 701 380 200 201 312 407 380 701 27 113 27 423 1 545 -82
381 -313 709 -641 910 -263 160 -593 228 -901 185z m87 -351 l3 -166 33 -29
c52 -46 117 -37 147 21 11 22 15 65 15 184 l0 155 38 -5 c144 -20 274 -59 392
-119 84 -43 230 -139 230 -152 0 -4 -19 -27 -42 -51 -38 -38 -43 -48 -43 -88
0 -59 36 -94 96 -94 34 0 48 7 89 46 l49 46 46 -63 c101 -137 181 -323 211
-489 22 -121 35 -110 -131 -110 -172 0 -208 -10 -231 -65 -18 -45 -10 -78 28
-110 29 -24 34 -25 189 -25 183 0 169 12 143 -120 -21 -112 -64 -234 -118
-336 -49 -93 -125 -203 -140 -204 -5 0 -31 20 -57 45 -51 47 -77 54 -124 33
-15 -7 -33 -24 -41 -39 -24 -48 -18 -76 31 -128 25 -26 45 -52 45 -57 -1 -15
-111 -91 -204 -140 -102 -54 -224 -97 -336 -118 -132 -26 -120 -40 -120 143 0
155 -1 160 -25 189 -32 38 -65 46 -110 28 -55 -23 -65 -59 -65 -231 0 -166 11
-153 -110 -131 -166 30 -352 110 -489 211 l-62 46 45 50 c51 56 60 99 30 144
-37 57 -117 51 -178 -14 -17 -17 -33 -31 -38 -31 -14 0 -109 143 -153 230 -60
118 -99 248 -119 393 l-5 37 155 0 c119 0 162 4 184 15 58 30 67 95 21 147
l-29 33 -166 3 c-164 4 -166 4 -162 25 3 12 10 54 17 92 14 83 61 230 96 300
24 48 114 188 147 229 15 18 17 17 65 -27 41 -39 57 -47 88 -47 52 0 93 40 93
92 0 32 -8 47 -47 89 -44 48 -45 50 -27 65 41 32 181 123 229 147 93 46 274
98 407 116 3 1 8 -74 10 -165z"/>
<path d="M1345 4261 c-11 -5 -29 -19 -40 -31 -19 -21 -20 -36 -20 -307 l0
-285 33 -29 32 -29 179 0 c177 0 180 0 209 25 36 30 45 69 26 113 -19 47 -63
62 -184 62 l-100 0 0 205 c0 224 -5 251 -55 273 -30 14 -51 14 -80 3z"/>
<path d="M3812 3360 c-501 -63 -906 -438 -1006 -934 -33 -162 -29 -333 11
-504 l17 -73 -440 -442 c-445 -446 -485 -489 -522 -562 -58 -114 -71 -283 -33
-406 101 -322 483 -472 781 -307 40 23 179 154 516 491 l462 459 93 -23 c78
-19 122 -23 254 -23 214 -1 359 32 532 120 510 261 759 850 588 1391 -30 96
-56 123 -119 123 -40 0 -45 -4 -383 -342 l-343 -343 -243 243 -242 242 345
345 c338 338 345 345 345 385 0 29 -7 46 -25 64 -72 69 -389 121 -588 96z
m302 -206 c14 -5 -45 -69 -298 -324 l-316 -316 0 -44 0 -45 338 -337 337 -338
45 0 44 0 318 317 c174 174 321 313 325 309 4 -4 8 -80 8 -169 -1 -167 -9
-218 -56 -345 -178 -486 -699 -740 -1206 -587 -65 20 -87 23 -110 15 -15 -6
-246 -229 -513 -494 -311 -311 -500 -491 -526 -505 -23 -11 -68 -24 -100 -30
-273 -43 -478 232 -361 484 25 53 87 119 511 545 266 267 487 495 491 508 4
13 -4 58 -18 110 -54 190 -60 355 -17 521 98 385 411 668 805 731 63 9 268 6
299 -6z"/>
</g>
</svg>
